<svg xmlns="http://www.w3.org/2000/svg" viewBox="0 0 1400 400"><defs><style>.cls-1{fill:#07070b;}</style></defs><g id="Layer_2" data-name="Layer 2"><g id="Layer_1-2" data-name="Layer 1"><path class="cls-1" d="M155.36,242.37h27q-6-51.33-12-126.9Q158.43,202.25,155.36,242.37Z"/><path class="cls-1" d="M0,0V400H1400V0ZM188.68,350.23l-4.22-54.3h-28.1l-4.73,54.3H70.41L110.49,48.1H224L269,350.23Zm220,0H282.31V48.1h78.57V289.77h47.77Zm145.38,0H427.69V48.1h78.57V289.77H554Zm181.86-29.67q-7.56,15.3-29.21,25.66T656.3,356.58q-31.54,0-53.84-11.95t-29.21-30.42q-6.9-18.46-6.9-52.44V242h73v36.77q0,17,3.08,21.83c2.06,3.24,5.69,4.85,10.92,4.85s9.11-2.05,11.66-6.15,3.83-10.21,3.83-18.29q0-26.69-7.28-34.9-7.47-8.21-36.76-27.43-29.31-19.41-38.82-28.18t-15.77-24.26q-6.25-15.49-6.25-39.57,0-34.71,8.86-50.76t28.65-25.1q19.79-9,47.78-9,30.6,0,52.16,9.89t28.55,24.92q7,15,7,51v11.94H664V117.15q0-15.69-2.8-20t-9.33-4.29a11.87,11.87,0,0,0-10.73,5.79q-3.65,5.79-3.64,17.55,0,15.12,4.09,22.78,3.9,7.67,22.2,18.47,52.46,31.14,66.08,51.11T743.45,273Q743.45,305.27,735.89,320.56Zm168.42,29.67H768.08V48.1h131v60.46H846.65v57.29h49.08v57.48H846.65v66.44h57.66Zm265,0h-68.68l-.09-204-27.34,204h-48.71L995.66,150.92l-.09,199.31H926.89V48.1h101.66q4.53,27.24,9.33,64.23L1049,189.18,1067.09,48.1h102.22Zm110.1,0h-78.56V48.1h78.56Z"/></g></g></svg>